<!-- icon666.com - MILLIONS vector ICONS FREE --><svg id="Capa_1" enable-background="new 0 0 512 512" viewBox="0 0 512 512" xmlns="http://www.w3.org/2000/svg"><g><path d="m471.133 248.941-16.041-10.694 28.352-68.044-185.967 84.635 46.889-164.111c1.339-4.687-2.663-9.171-7.472-8.369l-39.417 6.569-35.351-84.843c-1.134-2.722-3.63-4.084-6.125-4.084l-41.478 254.839-77.265-92.719c-2.84-3.408-8.159-3.124-10.62.567l-11.661 17.491-84.67-35.278c-5.47-2.279-10.958 3.208-8.678 8.678l6.927 16.625 65.778 88.13 161.666 79.461 71.879 64.691c4.271 3.844 11.076.813 11.076-4.933v-18.281l112.301-14.038c6.395-.799 8.012-9.325 2.355-12.411l-73.178-39.915 90.363-52.712c4.239-2.472 4.421-8.531.337-11.254z" fill="#ffc269"></path><g fill="#ffa95f"><path d="m249.874 4.084-35.352 84.844-39.417-6.569c-4.809-.801-8.811 3.682-7.472 8.369l46.889 164.111 41.478 82.955v-337.794c-2.496 0-4.991 1.361-6.126 4.084z"></path><path d="m490.371 153.579c2.279-5.47-3.209-10.958-8.678-8.678l-84.669 35.279-11.661-17.491c-2.461-3.691-7.78-3.976-10.62-.568l-77.265 92.719-41.478 82.954 227.444-167.59z"></path><path d="m56.907 238.248-16.041 10.693c-4.083 2.722-3.902 8.782.337 11.254l90.363 52.712-73.178 39.915c-5.658 3.086-4.04 11.612 2.355 12.411l112.301 14.038v18.281c0 5.746 6.805 8.777 11.076 4.933l71.88-64.691-227.444-167.59z"></path></g><path d="m420.29 216.735c-2.706-3.69-7.923-4.468-11.593-1.758l-144.401 106.402v-224.155c0-4.581-3.71-8.296-8.296-8.296-4.585 0-8.296 3.714-8.296 8.296v224.155l-144.402-106.402c-3.67-2.71-8.879-1.932-11.593 1.758-2.722 3.69-1.936 8.883 1.758 11.601l144.113 106.189c6.366 4.691 10.124 12.128 10.124 20.035v16.416c0 4.581 3.71 8.296 8.296 8.296 4.585 0 8.296-3.714 8.296-8.296v-16.416c0-7.907 3.758-15.344 10.124-20.035l144.113-106.189c3.693-2.718 4.479-7.911 1.757-11.601z" fill="#ff8b5a"></path><path d="m256 487.113c-4.581 0-8.296-3.714-8.296-8.296v-107.841h16.591v107.842c.001 4.581-3.713 8.295-8.295 8.295z" fill="#ff7350"></path><path d="m247.705 503.704c0 4.581 3.714 8.296 8.296 8.296s8.296-3.714 8.296-8.296v-24.887h-16.591v24.887z" fill="#db4655"></path></g></svg>